# xmcd
#
# Track frame offsets: 
#        150
#        6232
#        31905
#        69190
#        105645
#        138420
#        171547
#
# Disc length: 2902 seconds
#
# Revision: 1
# Processed by: cddbd v1.5.2PL0 Copyright (c) Steve Scherf et al.
# Submitted via: ExactAudioCopy v0.99pb5
#
DISCID=570b5407
DTITLE=Gary Oliver - Just One Word 
DYEAR=1998
DGENRE=Worship
TTITLE0=The Lord's Prayer 
TTITLE1=Psalm 117 
TTITLE2=I Love You 
TTITLE3='Tis So Sweet
TTITLE4=Just One Word
TTITLE5=Welcome Into This Place
TTITLE6=Let Your Glory Fill This Place
EXTD=Gary Oliver - Just One Word
EXTT0=
EXTT1=
EXTT2=
EXTT3=
EXTT4=
EXTT5=
EXTT6=
PLAYORDER=
